<?xml version="1.0" encoding="utf-8"?>
<!-- Generator: Adobe Illustrator 16.0.0, SVG Export Plug-In . SVG Version: 6.00 Build 0)  -->
<!DOCTYPE svg PUBLIC "-//W3C//DTD SVG 1.1//EN" "http://www.w3.org/Graphics/SVG/1.1/DTD/svg11.dtd">
<svg version="1.1" id="Layer_1" xmlns="http://www.w3.org/2000/svg" xmlns:xlink="http://www.w3.org/1999/xlink" x="0px" y="0px"
	 width="25px" height="25px" viewBox="0 0 25 25" enable-background="new 0 0 25 25" xml:space="preserve">
<g>
	<path fill="#766D64" d="M21.296,16.535c0.224,0,0.421-0.148,0.481-0.364L24.98,4.792c0.043-0.151,0.013-0.313-0.082-0.438
		s-0.243-0.199-0.399-0.199H4.119V0.501C4.119,0.224,3.895,0,3.618,0H0.501C0.224,0,0,0.224,0,0.501c0,0.276,0.224,0.5,0.501,0.5
		h2.617v17.337c0,0.276,0.224,0.501,0.5,0.501h17.713c0.276,0,0.501-0.225,0.501-0.501s-0.225-0.501-0.501-0.501H4.119v-1.303
		H21.296z M4.153,5.158h19.685l-2.922,10.376H4.121L4.153,5.158z"/>
	<path fill="#766D64" d="M6.467,20.092c-1.353,0-2.453,1.102-2.453,2.454C4.014,23.899,5.114,25,6.467,25
		c1.353,0,2.453-1.101,2.453-2.454C8.92,21.193,7.82,20.092,6.467,20.092z M6.467,23.998c-0.801,0-1.452-0.651-1.452-1.452
		s0.651-1.452,1.452-1.452s1.452,0.651,1.452,1.452S7.268,23.998,6.467,23.998z"/>
	<path fill="#766D64" d="M18.652,20.092c-1.354,0-2.454,1.102-2.454,2.454c0,1.354,1.101,2.454,2.454,2.454
		c1.353,0,2.453-1.101,2.453-2.454C21.105,21.193,20.005,20.092,18.652,20.092z M18.652,23.998c-0.801,0-1.452-0.651-1.452-1.452
		s0.651-1.452,1.452-1.452c0.8,0,1.451,0.651,1.451,1.452S19.452,23.998,18.652,23.998z"/>
</g>
</svg>
