<?xml version="1.0" encoding="utf-8"?>
<!-- Generator: Adobe Illustrator 16.0.0, SVG Export Plug-In . SVG Version: 6.00 Build 0)  -->
<!DOCTYPE svg PUBLIC "-//W3C//DTD SVG 1.1//EN" "http://www.w3.org/Graphics/SVG/1.1/DTD/svg11.dtd">
<svg version="1.1" id="Layer_1" xmlns="http://www.w3.org/2000/svg" xmlns:xlink="http://www.w3.org/1999/xlink" x="0px" y="0px"
	 width="30px" height="30px" viewBox="0 0 30 30" enable-background="new 0 0 30 30" xml:space="preserve">
<g>
	<defs>
		<rect id="SVGID_1_" width="30" height="30"/>
	</defs>
	<clipPath id="SVGID_2_">
		<use xlink:href="#SVGID_1_"  overflow="visible"/>
	</clipPath>
</g>
<g>
	<defs>
		<rect id="SVGID_3_" width="30" height="30"/>
	</defs>
	<clipPath id="SVGID_4_">
		<use xlink:href="#SVGID_3_"  overflow="visible"/>
	</clipPath>
	<path clip-path="url(#SVGID_4_)" fill="#D2C2B2" d="M28,4H2C0.9,4,0,3.1,0,2s0.9-2,2-2h26c1.101,0,2,0.9,2,2S29.101,4,28,4"/>
	<path clip-path="url(#SVGID_4_)" fill="#D2C2B2" d="M28,12.667H2c-1.1,0-2-0.9-2-2s0.9-2,2-2h26c1.101,0,2,0.9,2,2
		S29.101,12.667,28,12.667"/>
	<path clip-path="url(#SVGID_4_)" fill="#D2C2B2" d="M28,21.333H2c-1.1,0-2-0.899-2-2c0-1.1,0.9-2,2-2h26c1.101,0,2,0.9,2,2
		C30,20.434,29.101,21.333,28,21.333"/>
	<path clip-path="url(#SVGID_4_)" fill="#D2C2B2" d="M28,30H2c-1.1,0-2-0.9-2-2s0.9-2,2-2h26c1.101,0,2,0.9,2,2S29.101,30,28,30"/>
</g>
</svg>
