<?xml version="1.0" encoding="utf-8"?>
<!-- Generator: Adobe Illustrator 16.0.0, SVG Export Plug-In . SVG Version: 6.00 Build 0)  -->
<!DOCTYPE svg PUBLIC "-//W3C//DTD SVG 1.1//EN" "http://www.w3.org/Graphics/SVG/1.1/DTD/svg11.dtd">
<svg version="1.1" id="Layer_1" xmlns="http://www.w3.org/2000/svg" xmlns:xlink="http://www.w3.org/1999/xlink" x="0px" y="0px"
	 width="100px" height="100px" viewBox="0 0 100 100" enable-background="new 0 0 100 100" xml:space="preserve">
<g>
	<defs>
		<rect id="SVGID_1_" width="100" height="100"/>
	</defs>
	<clipPath id="SVGID_2_">
		<use xlink:href="#SVGID_1_"  overflow="visible"/>
	</clipPath>
	<path clip-path="url(#SVGID_2_)" fill="#D2C2B2" d="M40.926,80V48.627H35.5v-9.32h5.426v-1.582c0-4.91,1.527-10.319,5.258-13.647
		C49.406,21.082,53.898,20,57.63,20c2.884,0,5.087,0.333,6.87,0.832l-0.509,9.736c-1.104-0.332-2.46-0.582-4.156-0.582
		c-4.241,0-6.021,3.245-6.021,7.24v2.081h8.31v9.32h-8.226V80H40.926z"/>
	<path clip-path="url(#SVGID_2_)" fill="#D2C2B2" d="M70.035,0h-40.07C13.442,0,0,13.442,0,29.965v40.07
		C0,86.558,13.442,100,29.965,100h40.07C86.558,100,100,86.558,100,70.035v-40.07C100,13.442,86.558,0,70.035,0 M92.183,70.035
		c0,12.212-9.936,22.147-22.147,22.147h-40.07c-12.213,0-22.148-9.936-22.148-22.147v-40.07c0-12.213,9.935-22.148,22.148-22.148
		h40.07c12.212,0,22.147,9.935,22.147,22.148V70.035z"/>
</g>
</svg>
