<?xml version="1.0" encoding="utf-8"?>
<!-- Generator: Adobe Illustrator 16.0.0, SVG Export Plug-In . SVG Version: 6.00 Build 0)  -->
<!DOCTYPE svg PUBLIC "-//W3C//DTD SVG 1.1//EN" "http://www.w3.org/Graphics/SVG/1.1/DTD/svg11.dtd">
<svg version="1.1" id="Layer_1" xmlns="http://www.w3.org/2000/svg" xmlns:xlink="http://www.w3.org/1999/xlink" x="0px" y="0px"
	 width="30px" height="30px" viewBox="0 0 30 30" enable-background="new 0 0 30 30" xml:space="preserve">
<g>
	<defs>
		<rect id="SVGID_1_" width="30" height="30"/>
	</defs>
	<clipPath id="SVGID_2_">
		<use xlink:href="#SVGID_1_"  overflow="visible"/>
	</clipPath>
	<path clip-path="url(#SVGID_2_)" fill="#D2C2B2" d="M21.011,0H8.99C4.033,0,0,4.033,0,8.989v12.021c0,4.957,4.033,8.988,8.99,8.988
		h12.021c4.956,0,8.989-4.031,8.989-8.988V8.989C30,4.033,25.967,0,21.011,0 M27.655,21.011c0,3.664-2.981,6.644-6.645,6.644H8.99
		c-3.664,0-6.645-2.979-6.645-6.644V8.989c0-3.664,2.981-6.644,6.645-6.644h12.021c3.663,0,6.645,2.98,6.645,6.644V21.011z"/>
	<path clip-path="url(#SVGID_2_)" fill="#D2C2B2" d="M15,8.5c-3.584,0-6.5,2.916-6.5,6.5s2.916,6.5,6.5,6.5s6.5-2.916,6.5-6.5
		S18.584,8.5,15,8.5 M15,19.932c-2.719,0-4.932-2.212-4.932-4.932c0-2.719,2.213-4.932,4.932-4.932c2.719,0,4.932,2.213,4.932,4.932
		C19.932,17.72,17.719,19.932,15,19.932"/>
	<path clip-path="url(#SVGID_2_)" fill="#D2C2B2" d="M23,5.5c-0.828,0-1.5,0.672-1.5,1.5s0.672,1.5,1.5,1.5s1.5-0.672,1.5-1.5
		S23.828,5.5,23,5.5"/>
</g>
</svg>
