<?xml version="1.0" encoding="utf-8"?>
<!-- Generator: Adobe Illustrator 16.0.0, SVG Export Plug-In . SVG Version: 6.00 Build 0)  -->
<!DOCTYPE svg PUBLIC "-//W3C//DTD SVG 1.1//EN" "http://www.w3.org/Graphics/SVG/1.1/DTD/svg11.dtd">
<svg version="1.1" id="Layer_1" xmlns="http://www.w3.org/2000/svg" xmlns:xlink="http://www.w3.org/1999/xlink" x="0px" y="0px"
	 width="300px" height="250px" viewBox="0 0 300 250" enable-background="new 0 0 300 250" xml:space="preserve">
<path fill="#D2C2B2" d="M125.078,58.037c0.722-0.677,1.879-1.016,3.474-1.016h1.71v18.327c0,1.191-0.064,1.927-0.192,2.208
	c-0.174,0.397-0.413,0.678-0.716,0.841c-0.419,0.246-0.972,0.368-1.658,0.368h-0.786v0.648h12.394v-0.648h-0.786
	c-0.675,0-1.208-0.114-1.597-0.342c-0.39-0.228-0.652-0.493-0.786-0.797s-0.201-1.063-0.201-2.278V57.021h1.763
	c1.105,0,1.879,0.105,2.321,0.315c0.792,0.386,1.414,0.902,1.868,1.55c0.454,0.648,0.867,1.714,1.239,3.198h0.628v-6.43h-21.261
	v6.43h0.663C123.425,60.332,124.065,58.983,125.078,58.037z"/>
<path fill="#D2C2B2" d="M154.544,78.782c-0.687-0.093-1.141-0.339-1.361-0.736c-0.175-0.292-0.262-1.022-0.262-2.19v-8.778
	c0.512-0.806,0.988-1.369,1.431-1.69s0.896-0.482,1.362-0.482c0.313,0,0.596,0.097,0.847,0.289c0.25,0.193,0.427,0.462,0.532,0.806
	c0.104,0.345,0.157,1.195,0.157,2.55v7.306c0,1.18-0.105,1.921-0.314,2.225c-0.291,0.386-0.728,0.619-1.31,0.701v0.631h8.274v-0.631
	c-0.71-0.082-1.182-0.277-1.414-0.587s-0.349-1.089-0.349-2.339V69.46c0-1.869-0.12-3.197-0.358-3.986s-0.722-1.475-1.448-2.059
	c-0.728-0.584-1.604-0.876-2.628-0.876c-0.803,0-1.577,0.196-2.321,0.586c-0.745,0.392-1.565,1.061-2.461,2.007v-9.479h-6.651v0.648
	c0.722,0.094,1.196,0.292,1.423,0.595c0.227,0.304,0.34,1.075,0.34,2.313v16.645c0,1.25-0.099,2.003-0.296,2.26
	c-0.292,0.375-0.78,0.596-1.467,0.666v0.631h8.274V78.782z"/>
<path fill="#D2C2B2" d="M173.309,79.903c1.408,0,2.647-0.377,3.718-1.13c1.071-0.753,2.049-2.035,2.933-3.846l-0.593-0.385
	c-0.652,1.016-1.264,1.72-1.833,2.111c-0.57,0.392-1.205,0.587-1.903,0.587c-1.129,0-2.095-0.484-2.897-1.454
	c-1.047-1.261-1.623-2.979-1.729-5.151h8.955c-0.093-2.674-0.747-4.692-1.964-6.053c-1.216-1.361-2.65-2.041-4.303-2.041
	c-1.979,0-3.703,0.809-5.176,2.427c-1.472,1.618-2.208,3.793-2.208,6.526c0,2.231,0.5,4.1,1.501,5.606
	C169.055,78.969,170.888,79.903,173.309,79.903z M170.917,68.848c0-1.811,0.343-3.236,1.03-4.275
	c0.384-0.596,0.878-0.894,1.483-0.894c0.407,0,0.733,0.105,0.978,0.315c0.431,0.362,0.748,0.894,0.951,1.594
	c0.204,0.701,0.306,1.992,0.306,3.872h-4.748V68.848z"/>
<path fill="#D2C2B2" d="M32.84,110.84c-1.979-0.981-3.241-1.664-3.788-2.049c-0.745-0.537-1.286-1.08-1.624-1.629
	c-0.244-0.409-0.367-0.876-0.367-1.402c0-0.829,0.346-1.562,1.039-2.199c0.692-0.636,1.632-0.955,2.819-0.955
	c1.536,0,2.964,0.604,4.286,1.813c1.32,1.209,2.149,2.806,2.487,4.792h0.716l-0.192-7.919h-0.524
	c-0.151,0.713-0.314,1.163-0.489,1.349c-0.175,0.187-0.413,0.28-0.716,0.28c-0.314,0-0.864-0.19-1.649-0.569
	c-0.786-0.38-1.452-0.64-1.999-0.78c-0.722-0.187-1.466-0.28-2.234-0.28c-2.106,0-3.852,0.666-5.236,1.997
	c-1.385,1.332-2.078,2.944-2.078,4.836c0,1.11,0.253,2.126,0.759,3.049c0.506,0.923,1.231,1.758,2.173,2.505
	c0.943,0.748,2.49,1.653,4.644,2.716c1.536,0.759,2.606,1.375,3.212,1.848c0.605,0.473,1.056,0.973,1.353,1.499
	c0.297,0.525,0.445,1.068,0.445,1.629c0,0.946-0.387,1.775-1.161,2.488c-0.774,0.712-1.813,1.069-3.116,1.069
	c-1.688,0-3.261-0.663-4.722-1.989s-2.447-3.25-2.959-5.773h-0.646v8.971h0.646c0.209-0.479,0.483-0.834,0.82-1.068
	s0.658-0.351,0.96-0.351c0.36,0,0.82,0.117,1.379,0.351c1,0.42,1.833,0.707,2.496,0.857c0.664,0.153,1.367,0.229,2.112,0.229
	c2.374,0,4.332-0.715,5.874-2.146c1.542-1.431,2.313-3.139,2.313-5.125c0-1.565-0.478-2.955-1.432-4.17
	C37.478,113.498,35.61,112.207,32.84,110.84z"/>
<path fill="#D2C2B2" d="M58.396,122.036v-6.395c0-1.869-0.119-3.198-0.358-3.986c-0.238-0.789-0.722-1.475-1.449-2.059
	c-0.728-0.583-1.603-0.876-2.627-0.876c-0.803,0-1.577,0.196-2.322,0.587c-0.745,0.392-1.565,1.06-2.461,2.006v-9.479h-6.651v0.648
	c0.722,0.094,1.196,0.292,1.423,0.596s0.34,1.075,0.34,2.313v16.645c0,1.25-0.099,2.003-0.296,2.26
	c-0.292,0.375-0.78,0.596-1.467,0.666v0.631h8.274v-0.631c-0.687-0.093-1.141-0.338-1.361-0.735
	c-0.175-0.292-0.262-1.022-0.262-2.19v-8.778c0.512-0.806,0.989-1.37,1.432-1.691c0.442-0.321,0.896-0.482,1.361-0.482
	c0.314,0,0.596,0.097,0.847,0.29c0.25,0.192,0.428,0.461,0.533,0.805c0.104,0.345,0.157,1.195,0.157,2.55v7.306
	c0,1.18-0.104,1.922-0.314,2.225c-0.291,0.386-0.728,0.619-1.31,0.701v0.631h8.274v-0.631c-0.71-0.082-1.181-0.277-1.414-0.587
	S58.396,123.286,58.396,122.036z"/>
<path fill="#D2C2B2" d="M74.255,110.762c-1.216-1.361-2.651-2.042-4.303-2.042c-1.979,0-3.704,0.809-5.175,2.427
	c-1.473,1.618-2.208,3.793-2.208,6.526c0,2.231,0.5,4.1,1.501,5.606c1.245,1.87,3.078,2.804,5.499,2.804
	c1.408,0,2.647-0.377,3.718-1.131c1.07-0.753,2.048-2.035,2.933-3.846l-0.594-0.385c-0.652,1.016-1.263,1.72-1.833,2.111
	c-0.571,0.392-1.205,0.587-1.903,0.587c-1.129,0-2.095-0.485-2.898-1.454c-1.047-1.262-1.623-2.979-1.728-5.152h8.955
	C76.126,114.14,75.471,112.122,74.255,110.762z M67.177,115.641v-0.613c0-1.811,0.343-3.235,1.03-4.275
	c0.384-0.596,0.878-0.894,1.483-0.894c0.407,0,0.733,0.105,0.978,0.315c0.431,0.362,0.748,0.894,0.952,1.594
	c0.203,0.701,0.305,1.992,0.305,3.873H67.177z"/>
<path fill="#D2C2B2" d="M87.181,124.962c-0.652-0.035-1.114-0.125-1.388-0.271s-0.48-0.377-0.62-0.692
	c-0.082-0.187-0.122-0.613-0.122-1.279l-0.018-0.981v-3.767c0-1.367,0.186-2.617,0.559-3.75c0.244-0.736,0.605-1.302,1.082-1.7
	c0.303-0.256,0.623-0.385,0.96-0.385c0.151,0,0.285,0.035,0.402,0.105c0.081,0.047,0.349,0.269,0.803,0.666
	c0.454,0.397,0.989,0.596,1.606,0.596c0.535,0,0.992-0.216,1.371-0.648c0.378-0.433,0.567-1.04,0.567-1.822
	c0-0.736-0.195-1.306-0.584-1.708c-0.39-0.403-0.911-0.604-1.563-0.604c-0.756,0-1.542,0.277-2.356,0.833
	c-0.815,0.555-1.763,1.679-2.845,3.373v-3.714h-6.668v0.648c0.559,0.059,0.948,0.164,1.169,0.315
	c0.221,0.152,0.39,0.392,0.506,0.719c0.093,0.257,0.14,0.853,0.14,1.787v9.059c0,1.425-0.125,2.304-0.375,2.637
	c-0.25,0.333-0.73,0.529-1.44,0.587v0.631h8.815V124.962z"/>
<path fill="#D2C2B2" d="M102.49,124.962c-0.78-0.046-1.304-0.23-1.571-0.552c-0.268-0.321-0.402-1.06-0.402-2.217v-20.359h-6.843
	v0.648c0.768,0.046,1.286,0.231,1.554,0.552c0.268,0.322,0.401,1.054,0.401,2.199v16.96c0,1.157-0.116,1.869-0.349,2.138
	c-0.349,0.398-0.884,0.608-1.606,0.631v0.631h8.815V124.962z"/>
<path fill="#D2C2B2" d="M118.506,112.96c-0.634-1.354-1.563-2.4-2.784-3.136c-1.222-0.736-2.543-1.104-3.963-1.104
	c-2.362,0-4.221,0.874-5.577,2.619c-1.355,1.747-2.033,3.793-2.033,6.142c0,2.277,0.663,4.281,1.99,6.009
	c1.327,1.729,3.218,2.594,5.673,2.594c2.502,0,4.462-0.947,5.883-2.839c1.175-1.565,1.763-3.51,1.763-5.834
	C119.458,115.799,119.141,114.315,118.506,112.96z M113.977,122.772c-0.151,0.712-0.454,1.268-0.908,1.664
	c-0.349,0.293-0.786,0.438-1.31,0.438c-0.535,0-1.012-0.216-1.431-0.648c-0.419-0.433-0.692-1.063-0.82-1.893
	c-0.163-1.086-0.245-2.254-0.245-3.504c0-2.359,0.067-4.202,0.201-5.528c0.134-1.325,0.413-2.213,0.838-2.663
	s0.934-0.674,1.528-0.674c0.488,0,0.884,0.123,1.187,0.368c0.431,0.338,0.756,0.878,0.978,1.621
	c0.221,0.741,0.332,2.105,0.332,4.091C114.326,119.419,114.209,121.662,113.977,122.772z"/>
<path fill="#D2C2B2" d="M129.268,126.084c1.292,0,2.511-0.354,3.657-1.061c1.146-0.707,2.104-1.784,2.872-3.233l-0.541-0.42
	c-0.698,0.748-1.304,1.256-1.815,1.524c-0.512,0.269-1.053,0.403-1.624,0.403c-0.873,0-1.629-0.251-2.269-0.753
	c-0.85-0.689-1.519-1.737-2.008-3.146c-0.488-1.407-0.733-2.882-0.733-4.423c0-1.857,0.302-3.236,0.908-4.136
	c0.396-0.595,0.873-0.894,1.432-0.894c0.36,0,0.674,0.147,0.942,0.438c0.268,0.292,0.437,0.806,0.506,1.542
	c0.104,1.168,0.381,1.979,0.829,2.435c0.448,0.456,1.015,0.683,1.702,0.683c0.652,0,1.179-0.198,1.58-0.595
	c0.401-0.397,0.602-0.929,0.602-1.594c0-1.051-0.498-2.003-1.492-2.856c-0.995-0.852-2.336-1.279-4.024-1.279
	c-2.514,0-4.486,1.022-5.917,3.066c-1.187,1.693-1.781,3.656-1.781,5.887c0,2.313,0.652,4.293,1.955,5.939
	C125.352,125.26,127.092,126.084,129.268,126.084z"/>
<path fill="#D2C2B2" d="M156.813,124.962c-0.605-0.046-1.105-0.269-1.501-0.666c-0.291-0.28-1.211-1.565-2.758-3.854l-3.841-5.642
	l1.781-1.752c1.525-1.495,2.548-2.392,3.072-2.689c0.524-0.297,1.135-0.464,1.833-0.5v-0.648h-7.313v0.648
	c0.744,0.094,1.245,0.246,1.501,0.456c0.256,0.21,0.384,0.473,0.384,0.789s-0.096,0.643-0.288,0.981
	c-0.192,0.338-0.678,0.887-1.458,1.646l-3.788,3.732v-15.628h-6.651v0.648c0.721,0.094,1.196,0.292,1.423,0.596
	c0.227,0.304,0.34,1.075,0.34,2.313v16.645c0,1.25-0.099,2.003-0.297,2.26c-0.291,0.375-0.78,0.596-1.466,0.666v0.631h8.431v-0.631
	c-0.722-0.082-1.199-0.277-1.431-0.587c-0.233-0.31-0.349-1.089-0.349-2.339v-2.943l1.047-1.034l3.229,4.748
	c0.489,0.724,0.733,1.221,0.733,1.489c0,0.164-0.084,0.316-0.253,0.456c-0.169,0.141-0.439,0.21-0.812,0.21v0.631h8.431V124.962z"/>
<path fill="#D2C2B2" d="M192.581,124.944h-0.769c-0.663,0-1.193-0.114-1.589-0.341c-0.396-0.228-0.657-0.493-0.785-0.797
	c-0.128-0.304-0.192-1.063-0.192-2.278v-15.628c0-1.191,0.064-1.928,0.192-2.208c0.175-0.396,0.413-0.677,0.716-0.841
	c0.407-0.245,0.96-0.368,1.658-0.368h0.769v-0.648h-12.359v0.648h0.768c0.664,0,1.193,0.114,1.589,0.342s0.657,0.493,0.786,0.797
	c0.127,0.304,0.191,1.063,0.191,2.277v6.728h-8.361v-6.728c0-1.191,0.063-1.928,0.192-2.208c0.174-0.396,0.412-0.677,0.716-0.841
	c0.418-0.245,0.971-0.368,1.658-0.368h0.785v-0.648H166.17v0.648h0.785c0.663,0,1.189,0.114,1.58,0.342
	c0.39,0.228,0.648,0.493,0.776,0.797c0.128,0.304,0.192,1.063,0.192,2.277v15.628c0,1.191-0.064,1.927-0.192,2.208
	c-0.163,0.397-0.396,0.678-0.698,0.841c-0.419,0.246-0.972,0.368-1.658,0.368h-0.785v0.648h12.376v-0.648h-0.785
	c-0.664,0-1.19-0.114-1.58-0.341c-0.39-0.228-0.652-0.493-0.785-0.797c-0.135-0.304-0.201-1.063-0.201-2.278v-7.358h8.361v7.358
	c0,1.191-0.064,1.927-0.191,2.208c-0.175,0.397-0.414,0.678-0.716,0.841c-0.408,0.246-0.96,0.368-1.659,0.368h-0.768v0.648h12.359
	V124.944z"/>
<path fill="#D2C2B2" d="M202.182,126.084c2.502,0,4.463-0.947,5.883-2.839c1.175-1.565,1.763-3.51,1.763-5.834
	c0-1.612-0.317-3.095-0.951-4.451c-0.635-1.354-1.563-2.4-2.784-3.136c-1.222-0.736-2.543-1.104-3.963-1.104
	c-2.362,0-4.222,0.874-5.577,2.619c-1.355,1.747-2.033,3.793-2.033,6.142c0,2.277,0.663,4.281,1.989,6.009
	C197.835,125.219,199.726,126.084,202.182,126.084z M199.834,113.302c0.134-1.325,0.413-2.213,0.838-2.663s0.934-0.674,1.527-0.674
	c0.488,0,0.884,0.123,1.187,0.368c0.431,0.338,0.757,0.878,0.978,1.621c0.221,0.741,0.332,2.105,0.332,4.091
	c0,3.375-0.116,5.618-0.35,6.728c-0.151,0.712-0.453,1.268-0.907,1.664c-0.35,0.293-0.786,0.438-1.31,0.438
	c-0.535,0-1.012-0.216-1.432-0.648c-0.418-0.433-0.692-1.063-0.82-1.893c-0.163-1.086-0.244-2.254-0.244-3.504
	C199.633,116.471,199.7,114.628,199.834,113.302z"/>
<path fill="#D2C2B2" d="M218.695,122.193v-20.359h-6.843v0.648c0.768,0.046,1.285,0.231,1.554,0.552
	c0.267,0.322,0.401,1.054,0.401,2.199v16.96c0,1.157-0.117,1.869-0.35,2.138c-0.349,0.398-0.885,0.608-1.605,0.631v0.631h8.815
	v-0.631c-0.78-0.046-1.304-0.23-1.571-0.552C218.828,124.089,218.695,123.35,218.695,122.193z"/>
<path fill="#D2C2B2" d="M248.126,122.019v-6.71c0-1.752-0.131-3.028-0.393-3.829c-0.262-0.8-0.728-1.46-1.396-1.979
	c-0.67-0.52-1.568-0.78-2.697-0.78c-0.931,0-1.824,0.234-2.68,0.701c-0.855,0.467-1.748,1.226-2.68,2.277
	c-0.384-1.004-0.931-1.752-1.641-2.243c-0.71-0.491-1.588-0.736-2.636-0.736c-0.907,0-1.743,0.196-2.505,0.587
	c-0.763,0.392-1.592,1.078-2.487,2.059v-2.155h-6.651v0.648c0.722,0.094,1.196,0.292,1.423,0.596
	c0.228,0.304,0.341,1.075,0.341,2.313v9.251c0,1.261-0.1,2.021-0.297,2.277c-0.291,0.375-0.78,0.596-1.467,0.666v0.631h8.414v-0.631
	c-0.722-0.07-1.195-0.289-1.423-0.657c-0.227-0.368-0.34-1.13-0.34-2.286v-8.796c0.616-0.875,1.198-1.495,1.745-1.857
	c0.385-0.245,0.809-0.368,1.274-0.368c0.314,0,0.608,0.105,0.882,0.315s0.468,0.502,0.585,0.875
	c0.116,0.374,0.175,1.303,0.175,2.787v7.043c0,0.958-0.044,1.58-0.132,1.866c-0.087,0.287-0.262,0.532-0.523,0.736
	c-0.262,0.204-0.619,0.318-1.073,0.341v0.631h8.448v-0.631c-0.756-0.046-1.269-0.286-1.536-0.718
	c-0.197-0.304-0.297-1.045-0.297-2.225v-8.796c0.524-0.735,1.042-1.287,1.554-1.655c0.513-0.368,1.019-0.552,1.519-0.552
	c0.338,0,0.632,0.097,0.882,0.289s0.434,0.488,0.55,0.884c0.116,0.398,0.175,1.327,0.175,2.787v7.043
	c0,1.133-0.104,1.857-0.314,2.172c-0.313,0.456-0.803,0.713-1.466,0.771v0.631h8.431v-0.631c-0.722-0.093-1.195-0.292-1.422-0.595
	C248.239,124.063,248.126,123.28,248.126,122.019z"/>
<path fill="#D2C2B2" d="M263.88,110.762c-1.216-1.361-2.65-2.042-4.303-2.042c-1.979,0-3.703,0.809-5.176,2.427
	c-1.472,1.618-2.208,3.793-2.208,6.526c0,2.231,0.5,4.1,1.501,5.606c1.245,1.87,3.078,2.804,5.499,2.804
	c1.408,0,2.647-0.377,3.718-1.131c1.071-0.753,2.049-2.035,2.933-3.846l-0.593-0.385c-0.652,1.016-1.264,1.72-1.833,2.111
	c-0.57,0.392-1.205,0.587-1.903,0.587c-1.129,0-2.095-0.485-2.897-1.454c-1.047-1.262-1.623-2.979-1.729-5.152h8.955
	C265.751,114.14,265.097,112.122,263.88,110.762z M256.802,115.641v-0.613c0-1.811,0.343-3.235,1.03-4.275
	c0.384-0.596,0.878-0.894,1.483-0.894c0.407,0,0.733,0.105,0.978,0.315c0.431,0.362,0.748,0.894,0.951,1.594
	c0.204,0.701,0.306,1.992,0.306,3.873H256.802z"/>
<path fill="#D2C2B2" d="M275.131,115.001c-1.711-1.162-2.753-1.982-3.125-2.462c-0.233-0.292-0.35-0.595-0.35-0.911
	c0-0.42,0.169-0.791,0.507-1.112c0.337-0.321,0.744-0.482,1.222-0.482c0.756,0,1.516,0.304,2.278,0.911
	c0.762,0.608,1.498,1.741,2.208,3.399h0.594l-0.262-5.589h-0.594c-0.279,0.41-0.483,0.658-0.611,0.745s-0.297,0.131-0.506,0.131
	c-0.198,0-0.454-0.087-0.769-0.263c-0.826-0.432-1.682-0.648-2.565-0.648c-1.642,0-2.896,0.511-3.762,1.533
	c-0.867,1.022-1.301,2.164-1.301,3.425c0,1.156,0.384,2.214,1.152,3.171c0.523,0.654,1.676,1.6,3.456,2.838
	c1.21,0.83,1.99,1.449,2.339,1.857c0.35,0.409,0.523,0.894,0.523,1.454c0,0.491-0.177,0.908-0.532,1.253
	c-0.354,0.344-0.812,0.517-1.37,0.517c-0.814,0-1.679-0.386-2.592-1.157c-0.914-0.771-1.633-1.927-2.156-3.469h-0.594l0.279,5.887
	h0.576c0.256-0.584,0.576-0.876,0.96-0.876c0.128,0,0.367,0.064,0.716,0.193c1.304,0.49,2.345,0.736,3.125,0.736
	c1,0,1.914-0.234,2.74-0.702c0.826-0.467,1.467-1.139,1.92-2.015c0.454-0.876,0.682-1.77,0.682-2.681
	c0-1.004-0.271-1.913-0.813-2.725C277.967,117.151,276.841,116.164,275.131,115.001z"/>
<path fill="#D2C2B2" d="M101.524,163.68l-6.651-15.663h-9.67v0.647h0.75c0.664,0,1.193,0.114,1.588,0.342s0.657,0.49,0.786,0.788
	c0.128,0.299,0.192,1.049,0.192,2.252v15.033c0,1.063-0.012,1.658-0.035,1.787c-0.128,0.549-0.309,0.975-0.542,1.278
	c-0.233,0.305-0.576,0.547-1.03,0.727c-0.454,0.182-0.942,0.267-1.466,0.255h-0.244v0.648h8.1v-0.648
	c-1.083,0-1.876-0.185-2.383-0.552c-0.506-0.368-0.835-0.844-0.986-1.428c-0.059-0.269-0.087-0.987-0.087-2.156v-16.731
	l9.217,21.516h0.419l9.077-21.673v17.607c0,1.191-0.064,1.928-0.192,2.208c-0.175,0.397-0.408,0.678-0.698,0.841
	c-0.419,0.246-0.978,0.368-1.676,0.368h-0.768v0.648h12.359v-0.648h-0.768c-0.664,0-1.193-0.114-1.588-0.342
	c-0.396-0.228-0.658-0.493-0.786-0.797c-0.128-0.304-0.192-1.063-0.192-2.278v-15.663c0-1.18,0.063-1.91,0.192-2.19
	c0.174-0.386,0.407-0.66,0.698-0.823c0.419-0.245,0.978-0.368,1.676-0.368h0.768v-0.647h-9.636L101.524,163.68z"/>
<path fill="#D2C2B2" d="M135.197,168.217v-12.824h-6.651v0.647c0.722,0.094,1.196,0.292,1.423,0.596
	c0.227,0.305,0.34,1.075,0.34,2.313v8.76c-0.652,0.924-1.21,1.536-1.676,1.84c-0.338,0.222-0.716,0.333-1.135,0.333
	c-0.314,0-0.591-0.088-0.829-0.263c-0.239-0.175-0.413-0.432-0.523-0.771c-0.111-0.34-0.166-1.093-0.166-2.261v-11.195h-6.651v0.647
	c0.722,0.094,1.196,0.292,1.423,0.596c0.227,0.305,0.34,1.075,0.34,2.313v6.5c0,1.893,0.122,3.218,0.367,3.978
	c0.244,0.76,0.724,1.422,1.44,1.988c0.716,0.565,1.533,0.849,2.453,0.849c0.966,0,1.838-0.212,2.618-0.639s1.56-1.106,2.339-2.041
	v2.19h6.651v-0.632c-0.71-0.081-1.182-0.276-1.414-0.586C135.313,170.247,135.197,169.468,135.197,168.217z"/>
<path fill="#D2C2B2" d="M146.561,161.184c-1.71-1.163-2.752-1.983-3.125-2.463c-0.233-0.292-0.349-0.596-0.349-0.91
	c0-0.421,0.168-0.792,0.506-1.112c0.337-0.322,0.744-0.482,1.222-0.482c0.756,0,1.516,0.304,2.278,0.91
	c0.762,0.608,1.499,1.741,2.208,3.399h0.593l-0.262-5.589h-0.593c-0.279,0.408-0.483,0.657-0.611,0.745
	c-0.128,0.087-0.297,0.131-0.506,0.131c-0.198,0-0.454-0.088-0.769-0.263c-0.826-0.432-1.682-0.648-2.566-0.648
	c-1.641,0-2.895,0.512-3.762,1.533c-0.867,1.021-1.3,2.164-1.3,3.426c0,1.156,0.384,2.213,1.152,3.171
	c0.524,0.654,1.676,1.601,3.457,2.838c1.21,0.829,1.99,1.449,2.339,1.857c0.349,0.409,0.524,0.894,0.524,1.454
	c0,0.491-0.178,0.908-0.533,1.254c-0.355,0.344-0.812,0.516-1.37,0.516c-0.815,0-1.679-0.385-2.592-1.156
	c-0.914-0.771-1.632-1.927-2.156-3.469h-0.594l0.279,5.887h0.576c0.256-0.584,0.576-0.876,0.96-0.876
	c0.128,0,0.367,0.064,0.716,0.193c1.303,0.49,2.345,0.734,3.125,0.734c1,0,1.914-0.232,2.74-0.699
	c0.826-0.468,1.466-1.139,1.92-2.016c0.454-0.876,0.681-1.771,0.681-2.681c0-1.005-0.271-1.912-0.812-2.725
	C149.397,163.332,148.271,162.345,146.561,161.184z"/>
<path fill="#D2C2B2" d="M165.09,156.943c-1.216-1.361-2.65-2.042-4.303-2.042c-1.979,0-3.703,0.81-5.176,2.427
	c-1.472,1.618-2.208,3.793-2.208,6.526c0,2.231,0.5,4.1,1.501,5.606c1.245,1.869,3.078,2.803,5.499,2.803
	c1.408,0,2.647-0.376,3.718-1.129c1.071-0.754,2.049-2.036,2.933-3.846l-0.593-0.386c-0.652,1.017-1.264,1.721-1.833,2.111
	c-0.57,0.392-1.205,0.587-1.903,0.587c-1.129,0-2.095-0.484-2.897-1.454c-1.047-1.262-1.623-2.979-1.729-5.151h8.955
	C166.961,160.321,166.307,158.304,165.09,156.943z M158.012,161.822v-0.613c0-1.811,0.343-3.235,1.03-4.274
	c0.384-0.597,0.878-0.895,1.483-0.895c0.407,0,0.733,0.106,0.978,0.315c0.431,0.363,0.748,0.895,0.951,1.595
	c0.204,0.701,0.306,1.992,0.306,3.872H158.012z"/>
<path fill="#D2C2B2" d="M184.859,168.217v-12.824h-6.65v0.647c0.722,0.094,1.196,0.292,1.423,0.596
	c0.227,0.305,0.341,1.075,0.341,2.313v8.76c-0.652,0.924-1.211,1.536-1.676,1.84c-0.338,0.222-0.716,0.333-1.135,0.333
	c-0.314,0-0.591-0.088-0.829-0.263c-0.239-0.175-0.414-0.432-0.524-0.771c-0.11-0.34-0.166-1.093-0.166-2.261v-11.195h-6.65v0.647
	c0.722,0.094,1.196,0.292,1.423,0.596c0.227,0.305,0.341,1.075,0.341,2.313v6.5c0,1.893,0.122,3.218,0.366,3.978
	s0.725,1.422,1.44,1.988c0.715,0.565,1.532,0.849,2.452,0.849c0.966,0,1.839-0.212,2.618-0.639s1.56-1.106,2.34-2.041v2.19h6.65
	v-0.632c-0.71-0.081-1.182-0.276-1.414-0.586C184.976,170.247,184.859,169.468,184.859,168.217z"/>
<path fill="#D2C2B2" d="M214.866,168.2v-6.711c0-1.752-0.131-3.028-0.393-3.828s-0.728-1.46-1.396-1.979
	c-0.67-0.52-1.568-0.78-2.697-0.78c-0.931,0-1.824,0.234-2.68,0.701s-1.748,1.227-2.68,2.277c-0.384-1.005-0.931-1.752-1.641-2.242
	s-1.588-0.736-2.636-0.736c-0.907,0-1.743,0.196-2.505,0.587c-0.763,0.393-1.592,1.077-2.487,2.06v-2.155h-6.651v0.647
	c0.722,0.094,1.196,0.292,1.423,0.596c0.228,0.305,0.341,1.075,0.341,2.313v9.251c0,1.261-0.1,2.021-0.297,2.277
	c-0.291,0.374-0.78,0.596-1.467,0.665v0.632h8.414v-0.632c-0.722-0.069-1.195-0.288-1.423-0.656c-0.227-0.368-0.34-1.13-0.34-2.286
	v-8.796c0.616-0.876,1.198-1.495,1.745-1.856c0.385-0.246,0.809-0.369,1.274-0.369c0.314,0,0.608,0.105,0.882,0.316
	c0.273,0.209,0.468,0.502,0.585,0.876c0.116,0.373,0.175,1.303,0.175,2.785v7.044c0,0.958-0.044,1.579-0.132,1.865
	c-0.087,0.286-0.262,0.532-0.523,0.736c-0.262,0.205-0.619,0.318-1.073,0.341v0.632h8.448v-0.632
	c-0.756-0.046-1.269-0.285-1.536-0.717c-0.197-0.305-0.297-1.046-0.297-2.226v-8.796c0.524-0.735,1.042-1.288,1.554-1.655
	c0.513-0.368,1.019-0.552,1.519-0.552c0.338,0,0.632,0.096,0.882,0.289c0.25,0.192,0.434,0.487,0.55,0.885
	c0.116,0.396,0.175,1.325,0.175,2.785v7.044c0,1.133-0.104,1.856-0.314,2.172c-0.313,0.456-0.803,0.713-1.466,0.771v0.632h8.431
	v-0.632c-0.722-0.093-1.195-0.291-1.422-0.595C214.979,170.244,214.866,169.461,214.866,168.2z"/>
<path fill="#D2C2B2" d="M74.091,38.363c-0.423-1.522-0.144-2.769,0.839-3.739c0.6-0.592,1.326-0.87,2.177-0.833
	c0.851,0.036,1.606,0.391,2.265,1.063c0.903,0.923,1.579,2.115,2.024,3.577c0.447,1.463,0.869,4.75,1.267,9.861l0.208,0.212
	l7.643-7.538l-2.962-4.486l-0.345,0.34c0.216,0.656,0.324,1.119,0.325,1.389c0.002,0.271-0.074,0.537-0.225,0.799
	c-0.151,0.262-0.572,0.733-1.262,1.413l-2.806,2.768c0.094-4.263-0.117-7.304-0.632-9.126c-0.387-1.343-0.998-2.442-1.832-3.294
	c-0.458-0.468-1.102-0.818-1.933-1.051c-0.831-0.232-1.667-0.235-2.512-0.007c-0.844,0.227-1.595,0.666-2.252,1.314
	c-0.919,0.907-1.441,2.002-1.567,3.284c-0.125,1.282,0.242,2.709,1.102,4.279L74.091,38.363z"/>
<path fill="#D2C2B2" d="M84.521,28.454c-0.213-1.565,0.233-2.762,1.34-3.588c0.675-0.504,1.432-0.68,2.27-0.528
	c0.838,0.152,1.538,0.607,2.099,1.364c0.77,1.038,1.276,2.312,1.519,3.82c0.244,1.51,0.216,4.825-0.084,9.943l0.177,0.238
	l8.596-6.421l-2.324-4.85l-0.388,0.29c0.124,0.679,0.169,1.153,0.133,1.421c-0.035,0.269-0.146,0.522-0.331,0.761
	c-0.186,0.239-0.666,0.648-1.441,1.228l-3.156,2.358c0.672-4.21,0.876-7.252,0.613-9.128c-0.201-1.383-0.657-2.555-1.368-3.514
	c-0.39-0.526-0.98-0.961-1.772-1.307c-0.791-0.343-1.62-0.46-2.487-0.351c-0.867,0.11-1.67,0.442-2.41,0.994
	c-1.034,0.773-1.7,1.786-1.999,3.038c-0.298,1.254-0.128,2.717,0.511,4.391L84.521,28.454z"/>
<path fill="#D2C2B2" d="M97.047,17.103c0.251-0.139,0.508-0.195,0.771-0.172s0.481,0.11,0.653,0.255
	c0.172,0.146,0.46,0.589,0.866,1.33l4.547,8.303c0.552,1.007,0.852,1.678,0.901,2.01c0.049,0.332-0.029,0.656-0.233,0.975
	c-0.204,0.317-0.647,0.664-1.33,1.041l-0.423,0.234l0.239,0.437l8.402-4.635l-0.239-0.437l-0.365,0.201
	c-0.604,0.333-1.091,0.489-1.46,0.468c-0.37-0.022-0.672-0.145-0.907-0.369c-0.235-0.224-0.622-0.828-1.161-1.812l-7.173-13.098
	l-0.388,0.214l-4.397,5.932l0.445,0.308C96.229,17.719,96.647,17.324,97.047,17.103z"/>
<path fill="#D2C2B2" d="M108.261,9.004c0.338,0.042,0.607,0.164,0.806,0.364c0.199,0.2,0.464,0.767,0.793,1.698l3.954,11.177
	c0.329,0.932,0.479,1.536,0.449,1.813c-0.03,0.279-0.16,0.542-0.391,0.791s-0.742,0.514-1.535,0.796l0.167,0.471l8.718-3.107
	c2.43-0.866,4.1-2.039,5.012-3.517c0.738-1.216,0.878-2.472,0.419-3.768c-0.434-1.228-1.259-2.059-2.477-2.492
	c-0.85-0.307-2.156-0.362-3.919-0.162c1.375-0.919,2.248-1.81,2.618-2.671c0.37-0.86,0.408-1.706,0.115-2.537
	c-0.279-0.787-0.778-1.446-1.498-1.975c-0.719-0.531-1.55-0.826-2.493-0.885c-0.943-0.061-2.397,0.26-4.362,0.96l-8.225,2.931
	l0.167,0.47C107.362,9.082,107.924,8.964,108.261,9.004z M120.926,15.482c0.598,0.508,1.038,1.163,1.322,1.968
	c0.249,0.703,0.322,1.393,0.221,2.074c-0.102,0.68-0.384,1.271-0.847,1.774c-0.463,0.504-1.032,0.875-1.707,1.116
	c-0.455,0.162-0.841,0.169-1.155,0.019c-0.314-0.151-0.552-0.454-0.713-0.911l-0.212-0.64l-1.954-5.525
	c1.288-0.468,2.301-0.691,3.041-0.669C119.66,14.711,120.328,14.976,120.926,15.482z M115.943,6.997
	c0.647,0.056,1.206,0.273,1.678,0.654c0.471,0.381,0.842,0.951,1.111,1.713c0.27,0.763,0.339,1.443,0.209,2.042
	s-0.432,1.136-0.905,1.61c-0.473,0.474-1.309,0.923-2.507,1.351l-2.398-6.782C114.359,7.137,115.297,6.941,115.943,6.997z"/>
<path fill="#D2C2B2" d="M134.49,1.451c0.316,0.126,0.546,0.31,0.688,0.555c0.144,0.244,0.258,0.858,0.344,1.844l1.039,11.814
	c0.086,0.984,0.081,1.606-0.018,1.868c-0.098,0.261-0.29,0.483-0.575,0.667c-0.285,0.182-0.847,0.311-1.685,0.385l0.044,0.497
	l9.216-0.816c2.568-0.228,4.478-0.942,5.729-2.144c1.018-0.992,1.467-2.172,1.347-3.542c-0.114-1.299-0.707-2.31-1.777-3.035
	c-0.746-0.512-1.997-0.893-3.753-1.143c1.561-0.545,2.627-1.187,3.2-1.928c0.573-0.74,0.821-1.549,0.744-2.426
	c-0.073-0.833-0.392-1.597-0.956-2.291c-0.565-0.695-1.295-1.188-2.193-1.483c-0.897-0.296-2.385-0.351-4.463-0.167l-8.694,0.77
	l0.043,0.497C133.6,1.299,134.173,1.326,134.49,1.451z M145.134,10.905c0.452,0.642,0.715,1.388,0.79,2.237
	c0.065,0.743-0.036,1.431-0.304,2.063c-0.268,0.633-0.689,1.135-1.263,1.505c-0.574,0.372-1.218,0.589-1.931,0.652
	c-0.481,0.043-0.855-0.048-1.123-0.274c-0.267-0.224-0.421-0.577-0.464-1.06l-0.046-0.674l-0.514-5.839
	c1.364-0.129,2.401-0.091,3.111,0.117C144.101,9.84,144.682,10.265,145.134,10.905z M142.428,1.438
	c0.612,0.217,1.1,0.567,1.461,1.054c0.361,0.487,0.578,1.132,0.648,1.938s-0.031,1.481-0.307,2.029s-0.702,0.991-1.278,1.331
	s-1.498,0.566-2.765,0.678l-0.63-7.17C140.859,1.175,141.816,1.222,142.428,1.438z"/>
<path fill="#D2C2B2" d="M159.006,10.317c-2.848,1.077-4.711,1.97-5.586,2.678s-1.348,1.542-1.414,2.501
	c-0.051,0.708,0.146,1.313,0.586,1.818c0.439,0.504,1.018,0.781,1.73,0.831c1.215,0.086,2.635-0.493,4.256-1.738
	c0.041,0.687,0.252,1.213,0.629,1.578c0.379,0.365,0.924,0.572,1.641,0.623c0.605,0.043,1.16-0.069,1.658-0.335
	c0.498-0.267,0.994-0.715,1.488-1.347l-0.379-0.351c-0.266,0.314-0.514,0.464-0.746,0.448c-0.115-0.008-0.217-0.052-0.301-0.129
	c-0.084-0.079-0.143-0.193-0.178-0.344c-0.033-0.151-0.031-0.513,0.01-1.086l0.342-4.88c0.096-1.354,0.094-2.223-0.004-2.608
	c-0.164-0.606-0.574-1.188-1.23-1.743c-0.656-0.555-1.58-0.875-2.768-0.958c-0.98-0.07-1.939,0.02-2.873,0.269
	c-0.932,0.25-1.674,0.65-2.223,1.201c-0.551,0.551-0.848,1.149-0.895,1.794c-0.031,0.457,0.131,0.869,0.486,1.237
	c0.355,0.367,0.814,0.571,1.377,0.611c0.525,0.037,0.963-0.088,1.313-0.374c0.348-0.286,0.535-0.649,0.566-1.088
	c0.025-0.358-0.117-0.743-0.43-1.152c-0.23-0.295-0.34-0.537-0.326-0.726c0.016-0.215,0.145-0.395,0.389-0.54
	c0.393-0.233,0.879-0.329,1.459-0.288c0.357,0.025,0.672,0.14,0.945,0.343c0.273,0.204,0.451,0.433,0.537,0.687
	s0.096,0.856,0.029,1.806L159.006,10.317z M158.648,15.426c-0.625,0.459-1.16,0.674-1.607,0.643
	c-0.402-0.028-0.707-0.173-0.912-0.43c-0.273-0.334-0.396-0.708-0.367-1.12c0.035-0.493,0.244-0.969,0.627-1.428
	c0.576-0.689,1.428-1.313,2.555-1.873L158.648,15.426z"/>
<path fill="#D2C2B2" d="M170.283,20.007l0.104-0.474c-0.528-0.181-0.855-0.406-0.979-0.677c-0.125-0.271-0.084-0.876,0.12-1.815
	l0.483-2.212l0.956-0.604l1.647,4.101c0.248,0.624,0.352,1.038,0.308,1.24c-0.026,0.123-0.116,0.224-0.265,0.301
	c-0.15,0.078-0.366,0.085-0.646,0.024l-0.103,0.474l6.334,1.393l0.104-0.474c-0.446-0.135-0.785-0.385-1.018-0.749
	c-0.173-0.257-0.653-1.376-1.441-3.352l-1.961-4.873l1.626-1.022c1.391-0.872,2.306-1.376,2.749-1.513
	c0.441-0.138,0.929-0.162,1.459-0.073l0.106-0.487l-5.497-1.208l-0.106,0.487c0.546,0.193,0.896,0.39,1.055,0.59
	c0.157,0.201,0.21,0.419,0.158,0.657c-0.052,0.236-0.176,0.466-0.376,0.689c-0.2,0.222-0.654,0.555-1.366,0.997l-3.457,2.179
	l2.562-11.744l-4.998-1.098l-0.106,0.488c0.526,0.189,0.851,0.417,0.972,0.683c0.12,0.266,0.08,0.863-0.123,1.793l-2.729,12.507
	c-0.204,0.939-0.402,1.489-0.594,1.649c-0.279,0.233-0.683,0.319-1.211,0.258l-0.104,0.475L170.283,20.007z"/>
<path fill="#D2C2B2" d="M180.033,20.591c0.361,1.681,1.329,2.846,2.901,3.495c0.916,0.377,1.811,0.437,2.688,0.181
	c0.875-0.257,1.817-0.92,2.825-1.99l-0.294-0.437c-0.666,0.559-1.23,0.903-1.695,1.033c-0.464,0.129-0.923,0.101-1.376-0.085
	c-0.733-0.303-1.247-0.912-1.536-1.826c-0.378-1.191-0.341-2.583,0.11-4.18l5.818,2.398c0.58-1.955,0.638-3.586,0.174-4.893
	c-0.465-1.307-1.234-2.183-2.308-2.625c-1.286-0.53-2.601-0.408-3.943,0.365c-1.345,0.773-2.344,2.146-2.998,4.118
	C179.865,17.753,179.743,19.235,180.033,20.591z M184.027,15.468c0.433-1.306,0.998-2.242,1.692-2.808
	c0.392-0.328,0.785-0.409,1.177-0.247c0.266,0.109,0.453,0.272,0.561,0.489c0.193,0.376,0.271,0.844,0.237,1.404
	c-0.036,0.561-0.278,1.519-0.729,2.876l-3.086-1.271L184.027,15.468z"/>
<path fill="#D2C2B2" d="M193.934,17.593l-3.186,6.19c-0.502,0.974-0.896,1.53-1.184,1.67c-0.289,0.138-0.686,0.102-1.191-0.11
	l-0.221,0.431l6.023,3.124l0.223-0.432c-0.434-0.255-0.719-0.48-0.854-0.677c-0.137-0.197-0.195-0.427-0.18-0.692
	c0.01-0.156,0.133-0.462,0.367-0.917l0.332-0.677l1.326-2.574c0.48-0.934,1.047-1.723,1.701-2.364
	c0.424-0.417,0.871-0.676,1.336-0.778c0.297-0.068,0.563-0.043,0.793,0.077c0.104,0.054,0.182,0.125,0.236,0.215
	c0.039,0.061,0.145,0.307,0.314,0.739c0.172,0.433,0.467,0.758,0.887,0.977c0.367,0.19,0.756,0.204,1.166,0.043
	c0.41-0.162,0.754-0.51,1.029-1.045c0.258-0.503,0.324-0.961,0.201-1.375c-0.125-0.414-0.41-0.736-0.855-0.967
	c-0.518-0.268-1.152-0.356-1.902-0.267c-0.754,0.091-1.797,0.524-3.131,1.297l1.307-2.538l-4.559-2.363l-0.229,0.443
	c0.361,0.238,0.592,0.447,0.689,0.63c0.098,0.182,0.129,0.405,0.094,0.669C194.441,16.531,194.264,16.954,193.934,17.593z"/>
<path fill="#D2C2B2" d="M203.199,34.79c0.356-0.186,0.691-0.266,1.005-0.243c0.315,0.024,0.563,0.108,0.745,0.255
	c0.216,0.175,0.435,0.467,0.657,0.878c0.397,0.736,0.759,1.311,1.083,1.723c0.324,0.413,0.71,0.799,1.156,1.16
	c1.422,1.149,2.938,1.668,4.551,1.559c1.61-0.111,2.895-0.76,3.85-1.95c0.752-0.938,1.134-2.001,1.146-3.191
	c0.005-1.196-0.492-2.874-1.495-5.034c-0.714-1.546-1.142-2.567-1.283-3.062c-0.188-0.683-0.252-1.27-0.189-1.763
	c0.05-0.364,0.201-0.702,0.453-1.017c0.399-0.497,0.959-0.768,1.68-0.814c0.721-0.045,1.438,0.219,2.148,0.793
	c0.92,0.744,1.484,1.797,1.695,3.162c0.21,1.364-0.061,2.723-0.813,4.076l0.429,0.346l3.691-4.837l-0.313-0.253
	c-0.434,0.354-0.747,0.544-0.941,0.572c-0.195,0.026-0.383-0.033-0.563-0.18c-0.188-0.152-0.427-0.532-0.715-1.14
	s-0.563-1.086-0.823-1.436c-0.342-0.461-0.743-0.878-1.203-1.25c-1.262-1.02-2.628-1.466-4.098-1.339
	c-1.47,0.128-2.659,0.758-3.569,1.891c-0.533,0.665-0.869,1.397-1.01,2.194c-0.142,0.798-0.108,1.649,0.097,2.553
	c0.206,0.905,0.698,2.197,1.477,3.876c0.556,1.199,0.9,2.085,1.036,2.663c0.135,0.576,0.165,1.094,0.09,1.552
	s-0.247,0.856-0.517,1.192c-0.455,0.567-1.086,0.876-1.892,0.928s-1.6-0.237-2.381-0.869c-1.011-0.817-1.635-1.976-1.872-3.478
	c-0.238-1.502,0.097-3.131,1.002-4.892l-0.387-0.313l-4.313,5.375L203.199,34.79z"/>
<path fill="#D2C2B2" d="M221.372,34.829l1.142,1.18l-4.862,4.744c-0.963,0.939-1.522,1.548-1.679,1.825
	c-0.285,0.492-0.395,1.091-0.328,1.797s0.377,1.346,0.932,1.919c1.137,1.173,2.572,1.419,4.31,0.738l-0.068-0.497
	c-0.997,0.247-1.698,0.161-2.104-0.258c-0.1-0.104-0.162-0.261-0.188-0.476c-0.025-0.213,0.015-0.417,0.118-0.612
	c0.104-0.195,0.416-0.547,0.937-1.054l5.556-5.421l2.077,2.146l0.953-0.93l-2.077-2.146l3.292-3.213l-0.309-0.318
	c-1.188,0.333-2.373,0.521-3.554,0.564c-1.182,0.044-2.451-0.062-3.809-0.317L221.372,34.829z"/>
<path fill="#D2C2B2" d="M106.842,222.661c0.268-1.158,0.152-2.89-0.346-5.193c-0.353-1.648-0.544-2.728-0.574-3.239
	c-0.033-0.7,0.036-1.283,0.203-1.748c0.129-0.343,0.35-0.64,0.664-0.893c0.496-0.398,1.099-0.546,1.808-0.44
	c0.709,0.105,1.346,0.509,1.91,1.215c0.729,0.914,1.046,2.053,0.951,3.421c-0.096,1.366-0.657,2.628-1.684,3.784l0.34,0.426
	l4.644-3.926l-0.249-0.312c-0.499,0.253-0.844,0.372-1.039,0.359c-0.195-0.015-0.364-0.111-0.508-0.292
	c-0.149-0.187-0.297-0.604-0.443-1.254c-0.146-0.649-0.307-1.17-0.482-1.562c-0.231-0.52-0.529-1.008-0.894-1.464
	c-1-1.252-2.227-1.969-3.682-2.151c-1.453-0.182-2.746,0.183-3.877,1.093c-0.663,0.534-1.151,1.174-1.462,1.918
	c-0.312,0.745-0.467,1.579-0.466,2.499c0.001,0.92,0.195,2.274,0.582,4.065c0.275,1.279,0.416,2.211,0.42,2.8
	c0.004,0.587-0.08,1.095-0.253,1.525c-0.174,0.428-0.428,0.777-0.764,1.047c-0.565,0.456-1.245,0.626-2.038,0.508
	c-0.793-0.116-1.5-0.563-2.119-1.337c-0.802-1.003-1.153-2.258-1.054-3.764c0.099-1.507,0.781-3.019,2.046-4.537l-0.307-0.385
	l-5.363,4.318l0.307,0.384c0.386-0.105,0.729-0.114,1.029-0.027c0.299,0.089,0.521,0.223,0.665,0.402
	c0.171,0.214,0.32,0.545,0.446,0.988c0.224,0.797,0.448,1.43,0.672,1.897c0.225,0.466,0.513,0.922,0.867,1.365
	c1.127,1.41,2.485,2.229,4.073,2.458c1.588,0.228,2.975-0.137,4.163-1.092C105.964,224.766,106.569,223.813,106.842,222.661z"/>
<path fill="#D2C2B2" d="M115.671,224.776l-3.939-3.398l-0.324,0.379c0.419,0.408,0.625,0.773,0.618,1.093
	c-0.006,0.321-0.297,0.819-0.875,1.494l-4.779,5.581c-0.578,0.674-1.001,1.03-1.27,1.072c-0.398,0.059-0.812-0.085-1.239-0.43
	l-0.315,0.368l5.074,4.378l0.315-0.368c-0.425-0.415-0.635-0.781-0.628-1.103c0.006-0.321,0.299-0.817,0.876-1.491L115.671,224.776z
	"/>
<path fill="#D2C2B2" d="M118.43,221.86c0.373-0.436,0.542-0.938,0.506-1.509c-0.037-0.57-0.272-1.043-0.708-1.419
	c-0.429-0.369-0.927-0.529-1.494-0.479c-0.567,0.05-1.037,0.293-1.41,0.729c-0.374,0.437-0.542,0.937-0.503,1.504
	c0.039,0.566,0.273,1.035,0.702,1.404c0.429,0.37,0.926,0.533,1.495,0.49C117.585,222.537,118.057,222.297,118.43,221.86z"/>
<path fill="#D2C2B2" d="M124.935,230.462c-0.582-0.337-1.204-0.513-1.868-0.529c-0.664-0.017-1.445,0.12-2.345,0.408l0.812-1.412
	l-4.373-2.531l-0.249,0.432c0.439,0.337,0.673,0.649,0.708,0.938c0.032,0.289-0.189,0.846-0.663,1.671l-3.542,6.164
	c-0.483,0.841-0.838,1.31-1.066,1.405c-0.335,0.139-0.742,0.101-1.219-0.114l-0.242,0.421l5.43,3.142l0.242-0.42
	c-0.375-0.289-0.574-0.587-0.599-0.891c-0.024-0.305,0.199-0.865,0.669-1.683l3.36-5.849c1.116-0.63,2.003-0.755,2.661-0.374
	c0.199,0.115,0.344,0.285,0.435,0.508c0.09,0.224,0.104,0.473,0.039,0.746c-0.066,0.273-0.356,0.857-0.87,1.753l-2.79,4.857
	c-0.443,0.771-0.782,1.218-1.016,1.341c-0.342,0.187-0.73,0.189-1.168,0.009l-0.242,0.421l5.43,3.143l0.242-0.421
	c-0.443-0.329-0.68-0.64-0.711-0.933c-0.03-0.292,0.195-0.859,0.679-1.7l2.441-4.25c0.725-1.261,1.152-2.148,1.285-2.663
	c0.183-0.672,0.157-1.338-0.076-1.996C126.096,231.396,125.631,230.864,124.935,230.462z"/>
<path fill="#D2C2B2" d="M135.485,234.665c-1.825-0.558-3.485-0.243-4.982,0.942c-1.24,0.982-2.11,2.295-2.608,3.936
	c-0.517,1.702-0.486,3.303,0.092,4.805s1.657,2.495,3.238,2.978c0.938,0.288,1.901,0.298,2.892,0.032
	c0.991-0.265,1.926-0.845,2.807-1.74l-0.297-0.43c-0.675,0.396-1.227,0.635-1.659,0.719s-0.855,0.062-1.269-0.063
	c-0.635-0.195-1.128-0.547-1.48-1.059c-0.462-0.696-0.713-1.616-0.754-2.761c-0.04-1.144,0.112-2.283,0.457-3.419
	c0.415-1.366,0.943-2.313,1.583-2.84c0.421-0.351,0.834-0.463,1.239-0.34c0.262,0.081,0.457,0.258,0.587,0.532
	c0.129,0.273,0.136,0.689,0.022,1.246c-0.186,0.883-0.166,1.542,0.059,1.977c0.223,0.435,0.584,0.729,1.083,0.882
	c0.473,0.144,0.9,0.114,1.279-0.089c0.381-0.202,0.645-0.549,0.794-1.038c0.235-0.774,0.087-1.584-0.446-2.434
	C137.589,235.652,136.71,235.041,135.485,234.665z"/>
<path fill="#D2C2B2" d="M146.386,236.704c-1.495-0.141-2.856,0.356-4.084,1.491c-1.229,1.135-1.94,2.748-2.135,4.841
	c-0.159,1.71,0.085,3.176,0.734,4.401c0.808,1.519,2.126,2.365,3.955,2.537c1.064,0.101,2.027-0.1,2.891-0.602
	c0.863-0.501,1.693-1.412,2.491-2.736l-0.421-0.338c-0.565,0.731-1.078,1.228-1.537,1.486c-0.458,0.26-0.952,0.364-1.48,0.314
	c-0.853-0.08-1.548-0.52-2.086-1.319c-0.701-1.041-1.014-2.396-0.938-4.068l6.768,0.636c0.121-2.054-0.23-3.646-1.052-4.774
	C148.672,237.444,147.635,236.821,146.386,236.704z M147.382,242.145l-3.588-0.338l0.044-0.469c0.129-1.387,0.491-2.454,1.083-3.201
	c0.333-0.43,0.728-0.622,1.186-0.579c0.308,0.028,0.546,0.133,0.717,0.312c0.298,0.308,0.5,0.736,0.604,1.288
	C147.533,239.709,147.517,240.704,147.382,242.145z"/>
<path fill="#D2C2B2" d="M170.948,246.454c-0.662,0.159-1.166,0.177-1.513,0.057c-0.346-0.121-0.603-0.321-0.768-0.6
	c-0.166-0.28-0.378-0.967-0.636-2.059l-3.435-14.544l-0.426,0.101l-5.728,4.522l0.344,0.415c0.561-0.427,1.062-0.695,1.499-0.8
	c0.275-0.064,0.535-0.051,0.78,0.043c0.244,0.095,0.43,0.235,0.556,0.422s0.285,0.692,0.48,1.516l2.177,9.218
	c0.265,1.119,0.376,1.845,0.337,2.178s-0.197,0.623-0.474,0.874c-0.277,0.251-0.789,0.465-1.537,0.644l-0.464,0.109l0.114,0.486
	l9.205-2.192l-0.114-0.483L170.948,246.454z"/>
<path fill="#D2C2B2" d="M179.388,226.914c-1.012-0.791-2.072-1.25-3.183-1.378c-1.108-0.13-2.135,0.04-3.076,0.509
	c-0.878,0.437-1.602,1.107-2.172,2.008c-0.57,0.901-0.854,1.909-0.849,3.025c0.005,1.117,0.274,2.214,0.808,3.292
	c0.768,1.553,1.777,2.574,3.031,3.064c1.252,0.489,2.488,0.43,3.707-0.178c0.379-0.188,0.717-0.419,1.012-0.691
	c0.294-0.272,0.623-0.659,0.985-1.162c0.352,1.251,0.478,2.448,0.378,3.59c-0.101,1.143-0.46,2.24-1.08,3.291
	c-0.619,1.051-1.51,2.058-2.672,3.017l0.167,0.338c2.151-1.172,3.795-2.636,4.93-4.39c1.135-1.753,1.717-3.621,1.748-5.604
	c0.031-1.98-0.38-3.832-1.231-5.556C181.234,228.763,180.399,227.704,179.388,226.914z M178.297,235.297
	c-0.578,0.287-1.172,0.243-1.783-0.135c-0.939-0.585-1.961-1.992-3.063-4.222c-0.661-1.336-0.954-2.318-0.881-2.947
	c0.051-0.455,0.273-0.782,0.669-0.979c0.316-0.158,0.617-0.198,0.903-0.12c0.534,0.146,1.07,0.521,1.606,1.124
	c0.958,1.101,1.799,2.38,2.523,3.846c0.338,0.684,0.69,1.496,1.057,2.437C178.949,234.812,178.605,235.143,178.297,235.297z"/>
<path fill="#D2C2B2" d="M192.192,221.879c-0.935-1.146-1.983-1.992-3.145-2.535c-1.162-0.546-2.299-0.756-3.408-0.634
	c-1.11,0.123-2.072,0.517-2.886,1.186c-0.76,0.622-1.316,1.438-1.672,2.443c-0.356,1.006-0.408,2.052-0.156,3.139
	c0.253,1.088,0.759,2.098,1.518,3.029c1.094,1.342,2.306,2.11,3.636,2.308c1.329,0.198,2.521-0.137,3.574-1.001
	c0.328-0.27,0.606-0.569,0.832-0.9c0.228-0.332,0.462-0.782,0.704-1.353c0.62,1.14,1.009,2.277,1.165,3.415
	c0.155,1.137,0.049,2.286-0.322,3.45c-0.37,1.162-1.016,2.342-1.936,3.538l0.238,0.292c1.837-1.624,3.114-3.419,3.831-5.382
	c0.717-1.965,0.87-3.915,0.461-5.853C194.217,225.082,193.405,223.368,192.192,221.879z M189.845,227.758
	c-0.499,0.41-1.088,0.5-1.769,0.268c-1.046-0.359-2.354-1.503-3.923-3.43c-0.941-1.154-1.445-2.046-1.513-2.676
	c-0.053-0.455,0.093-0.824,0.435-1.105c0.273-0.225,0.558-0.33,0.854-0.317c0.554,0.021,1.159,0.268,1.816,0.737
	c1.177,0.857,2.28,1.918,3.313,3.185c0.481,0.591,1.006,1.304,1.571,2.139C190.373,227.14,190.111,227.54,189.845,227.758z"/>
<path fill="#D2C2B2" d="M205.48,216.505c-0.932-1.373-2.113-2.621-3.544-3.743c-1.565-1.229-3.19-2.127-4.873-2.695
	c-1.22-0.417-2.393-0.49-3.519-0.221c-1.125,0.271-2.01,0.818-2.651,1.642c-0.632,0.811-0.942,1.805-0.934,2.981
	c0.009,1.178,0.414,2.368,1.215,3.571c0.968,1.457,2.23,2.797,3.789,4.021c1.148,0.901,2.38,1.626,3.693,2.173
	c0.976,0.395,1.823,0.627,2.542,0.696c0.988,0.088,1.873-0.005,2.655-0.279c0.783-0.275,1.441-0.755,1.975-1.44
	c0.468-0.6,0.757-1.268,0.869-2.001s0.08-1.492-0.093-2.276C206.432,218.149,206.057,217.34,205.48,216.505z M205.081,222.573
	c-0.25,0.321-0.537,0.514-0.858,0.576c-0.322,0.063-0.772-0.05-1.355-0.338c-0.799-0.403-2.215-1.401-4.245-2.996
	c-3.731-2.929-5.873-4.682-6.426-5.264c-0.554-0.58-0.853-1.097-0.898-1.548c-0.033-0.309,0.067-0.611,0.302-0.912
	c0.305-0.391,0.639-0.585,0.999-0.583c0.553,0.006,1.346,0.358,2.381,1.059c0.438,0.298,1.912,1.433,4.422,3.403l4.516,3.611
	c0.792,0.69,1.271,1.336,1.438,1.939C205.445,221.874,205.354,222.224,205.081,222.573z"/>
<path fill="#D2C2B2" d="M297.237,99.66C291.35,99.66,285,91.319,285,83.14v-2.55h-60.146c-5.66-14.052-15.169-26.871-27.627-35.782
	c-13.479-9.641-29.379-15.043-45.982-15.043c-16.604,0-32.505,5.556-45.982,15.196C92.803,53.873,83.293,66.538,77.634,80.59H15
	v2.55c0,8.179-4.35,16.52-10.237,16.52H0v75.755l4.452-0.199c0.131-0.007-0.092-0.015,0.041-0.015
	c5.888,0,10.507,6.91,10.507,15.089v4.722h95.8c3.727,7.026,9.09,12.054,15.626,16.242c7.408,4.749,15.99,7.023,24.818,7.023
	c8.827,0,17.409-2.156,24.818-6.905c6.535-4.188,11.898-9.334,15.626-16.36H285v-4.722c0-8.179,6.35-14.349,12.237-14.349H300V99.66
	H297.237z M292,168.125c-7,1.891-11.637,9.824-12.894,19.861h-92.058l-1.03,1.388c-6.53,13.478-19.854,21.482-34.774,21.482
	s-28.245-7.82-34.775-21.298l-1.03-1.572H23.478c-1.29-10.037-8.478-18.354-15.478-20v-62.683c7-1.89,13.637-8.655,14.893-17.688
	h59.963l0.901-2.835c10.282-28.364,37.402-47.595,67.486-47.595c30.083,0,57.204,19.318,67.485,47.682l0.901,2.748h59.476
	c1.257,9.033,5.894,15.798,12.894,17.688V168.125z"/>
</svg>
