<?xml version="1.0" encoding="utf-8"?>
<!-- Generator: Adobe Illustrator 16.0.0, SVG Export Plug-In . SVG Version: 6.00 Build 0)  -->
<!DOCTYPE svg PUBLIC "-//W3C//DTD SVG 1.1//EN" "http://www.w3.org/Graphics/SVG/1.1/DTD/svg11.dtd">
<svg version="1.1" id="Layer_1" xmlns="http://www.w3.org/2000/svg" xmlns:xlink="http://www.w3.org/1999/xlink" x="0px" y="0px"
	 width="300px" height="400px" viewBox="0 0 300 400" enable-background="new 0 0 300 400" xml:space="preserve">
<g>
	<defs>
		<rect id="SVGID_1_" width="300" height="400"/>
	</defs>
	<clipPath id="SVGID_2_">
		<use xlink:href="#SVGID_1_"  overflow="visible"/>
	</clipPath>
	<path clip-path="url(#SVGID_2_)" fill="#D2C2B2" d="M172.095,101.624c2.447-3.961,3.863-8.626,3.863-13.624
		c0-4.66-1.234-9.029-3.384-12.81c17.92-10.701,30.322-32.14,30.322-47.287C202.896,6.97,179.214,0,150,0S97.104,6.97,97.104,27.903
		c0,15.147,12.401,36.586,30.322,47.287c-2.15,3.78-3.384,8.15-3.384,12.81c0,4.998,1.416,9.663,3.863,13.624
		C55.539,112.308,0,174.665,0,250c0,82.844,67.157,150,150,150s150-67.156,150-150C300,174.665,244.461,112.308,172.095,101.624
		 M150,376.045c-69.501,0-126.044-56.543-126.044-126.045c0-69.501,56.543-126.044,126.044-126.044S276.044,180.499,276.044,250
		C276.044,319.502,219.501,376.045,150,376.045"/>
	<path clip-path="url(#SVGID_2_)" fill="#D2C2B2" d="M150,134.163c-63.873,0-115.837,51.964-115.837,115.837
		S86.127,365.838,150,365.838S265.837,313.873,265.837,250S213.873,134.163,150,134.163 M47.249,257.5c-4.143,0-7.5-3.357-7.5-7.5
		s3.357-7.5,7.5-7.5c4.142,0,7.5,3.357,7.5,7.5S51.391,257.5,47.249,257.5 M150,139.75c4.143,0,7.5,3.357,7.5,7.5
		c0,4.142-3.357,7.5-7.5,7.5c-4.143,0-7.5-3.358-7.5-7.5C142.5,143.107,145.857,139.75,150,139.75 M149.999,360.251
		c-4.143,0-7.5-3.357-7.5-7.5c0-4.142,3.357-7.5,7.5-7.5c4.143,0,7.5,3.358,7.5,7.5
		C157.499,356.894,154.142,360.251,149.999,360.251 M204.016,289.032c-2.574,3.69-15.674-10.107-35.164-14.473
		c-15.748-3.524-17.197-12.511-16.346-17.497c-0.784,0.279-1.626,0.438-2.506,0.438c-4.142,0-7.5-3.357-7.5-7.5
		c0-2.59,1.313-4.873,3.309-6.221c-6.332-2.846-15.784-11.544-7.204-32.499c10.461-25.549,5.176-51.307,11.395-51.307
		c6.219,0,0.934,25.758,11.395,51.307c8.581,20.955-0.871,29.653-7.203,32.499c1.995,1.348,3.309,3.631,3.309,6.221
		c0,0.389-0.039,0.767-0.096,1.14c4.685-2.1,12.857-2.529,20.879,9.896C189.115,277.817,206.59,285.341,204.016,289.032
		 M252.75,257.501c-4.142,0-7.5-3.357-7.5-7.5s3.358-7.5,7.5-7.5c4.143,0,7.5,3.357,7.5,7.5S256.893,257.501,252.75,257.501"/>
</g>
</svg>
