<?xml version="1.0" encoding="utf-8"?>
<!-- Generator: Adobe Illustrator 16.0.0, SVG Export Plug-In . SVG Version: 6.00 Build 0)  -->
<!DOCTYPE svg PUBLIC "-//W3C//DTD SVG 1.1//EN" "http://www.w3.org/Graphics/SVG/1.1/DTD/svg11.dtd">
<svg version="1.1" id="Layer_1" xmlns="http://www.w3.org/2000/svg" xmlns:xlink="http://www.w3.org/1999/xlink" x="0px" y="0px"
	 width="25px" height="25px" viewBox="0 0 25 25" enable-background="new 0 0 25 25" xml:space="preserve">
<path fill="#766D64" d="M24.652,22.976l-6.987-6.987c1.32-1.681,2.109-3.798,2.109-6.102C19.774,4.427,15.348,0,9.887,0
	S0,4.427,0,9.887c0,5.461,4.427,9.888,9.887,9.888c2.303,0,4.42-0.789,6.101-2.109l6.987,6.987C23.207,24.885,23.511,25,23.814,25
	c0.303,0,0.606-0.115,0.838-0.348C25.115,24.189,25.115,23.438,24.652,22.976z M2.372,9.887c0-4.144,3.372-7.516,7.516-7.516
	s7.516,3.372,7.516,7.516c0,4.145-3.372,7.517-7.516,7.517S2.372,14.031,2.372,9.887z"/>
</svg>
