<?xml version="1.0" encoding="utf-8"?>
<!-- Generator: Adobe Illustrator 16.0.0, SVG Export Plug-In . SVG Version: 6.00 Build 0)  -->
<!DOCTYPE svg PUBLIC "-//W3C//DTD SVG 1.1//EN" "http://www.w3.org/Graphics/SVG/1.1/DTD/svg11.dtd">
<svg version="1.1" id="Layer_1" xmlns="http://www.w3.org/2000/svg" xmlns:xlink="http://www.w3.org/1999/xlink" x="0px" y="0px"
	 width="300px" height="400px" viewBox="0 0 300 400" enable-background="new 0 0 300 400" xml:space="preserve">
<g>
	<defs>
		<rect id="SVGID_1_" width="300" height="400"/>
	</defs>
	<clipPath id="SVGID_2_">
		<use xlink:href="#SVGID_1_"  overflow="visible"/>
	</clipPath>
</g>
<g>
	<defs>
		<rect id="SVGID_3_" width="300" height="400"/>
	</defs>
	<clipPath id="SVGID_4_">
		<use xlink:href="#SVGID_3_"  overflow="visible"/>
	</clipPath>
</g>
<g>
	<defs>
		<rect id="SVGID_5_" width="300" height="400"/>
	</defs>
	<clipPath id="SVGID_6_">
		<use xlink:href="#SVGID_5_"  overflow="visible"/>
	</clipPath>
</g>
<g>
	<defs>
		<rect id="SVGID_7_" width="300" height="400"/>
	</defs>
	<clipPath id="SVGID_8_">
		<use xlink:href="#SVGID_7_"  overflow="visible"/>
	</clipPath>
	<path clip-path="url(#SVGID_8_)" fill="#D2C2B2" d="M130.075,394.484l11.78,5.516l123.559-261.643L299.5,66.18l-11.779-5.515
		c-1.412,2.99-4.99,4.274-7.993,2.868s-4.292-4.969-2.88-7.959l-7.249-3.394c-1.412,2.99-4.991,4.274-7.994,2.868
		c-3.002-1.405-4.292-4.969-2.88-7.958l-6.343-2.97c-1.412,2.99-4.99,4.274-7.993,2.868c-3.003-1.406-4.292-4.969-2.88-7.959
		l-7.249-3.393c-1.412,2.989-4.991,4.273-7.993,2.867c-3.003-1.405-4.293-4.969-2.881-7.958l-6.344-2.97
		c-1.411,2.99-4.989,4.274-7.992,2.868c-3.002-1.406-4.292-4.969-2.881-7.959l-7.249-3.393c-1.411,2.989-4.99,4.273-7.992,2.868
		c-3.003-1.406-4.292-4.969-2.881-7.959l-7.249-3.394c-1.411,2.99-4.99,4.274-7.993,2.868c-3.002-1.406-4.292-4.969-2.88-7.959
		L158.145,0L124.06,72.178L0.5,333.819l11.779,5.516c1.412-2.989,4.991-4.273,7.993-2.867c3.003,1.405,4.293,4.968,2.881,7.958
		l7.249,3.394c1.412-2.989,4.99-4.273,7.993-2.867c3.003,1.405,4.292,4.969,2.88,7.959l7.249,3.394
		c1.412-2.99,4.991-4.274,7.993-2.868c3.003,1.405,4.293,4.969,2.881,7.958l6.343,2.97c1.411-2.989,4.99-4.273,7.993-2.867
		c3.002,1.405,4.292,4.969,2.88,7.959l7.249,3.394c1.412-2.99,4.991-4.273,7.993-2.868c3.003,1.405,4.292,4.97,2.881,7.958
		l6.342,2.971c1.412-2.99,4.991-4.274,7.994-2.868c3.002,1.405,4.292,4.969,2.88,7.959l7.249,3.394
		c1.412-2.99,4.99-4.273,7.993-2.868S131.487,391.496,130.075,394.484 M135.839,77.693c1.411-2.99,4.99-4.274,7.993-2.868
		c3.002,1.405,4.292,4.969,2.88,7.958c-1.412,2.99-4.99,4.274-7.993,2.868C135.716,84.245,134.427,80.682,135.839,77.693
		 M153.961,86.177c1.412-2.99,4.991-4.274,7.993-2.868c3.003,1.406,4.292,4.969,2.881,7.959c-1.411,2.99-4.99,4.274-7.993,2.868
		C153.84,92.729,152.55,89.167,153.961,86.177 M172.084,94.662c1.411-2.99,4.99-4.274,7.993-2.868
		c3.002,1.406,4.292,4.969,2.88,7.959c-1.412,2.989-4.989,4.273-7.992,2.867C171.961,101.215,170.673,97.651,172.084,94.662
		 M189.301,102.722c1.411-2.99,4.989-4.274,7.992-2.868c3.004,1.406,4.292,4.969,2.881,7.959c-1.412,2.99-4.99,4.274-7.993,2.868
		C189.179,109.275,187.889,105.712,189.301,102.722 M207.423,111.207c1.411-2.99,4.99-4.274,7.993-2.868
		c3.002,1.406,4.292,4.969,2.881,7.958c-1.412,2.99-4.991,4.274-7.993,2.868C207.301,117.76,206.011,114.196,207.423,111.207
		 M224.64,119.267c1.412-2.99,4.989-4.274,7.993-2.868c3.002,1.406,4.292,4.969,2.88,7.959c-1.412,2.99-4.99,4.274-7.993,2.868
		C224.517,125.82,223.228,122.257,224.64,119.267 M242.762,127.752c1.412-2.99,4.99-4.274,7.992-2.868
		c3.004,1.406,4.294,4.969,2.882,7.958c-1.412,2.99-4.991,4.274-7.993,2.868C242.64,134.305,241.35,130.741,242.762,127.752
		 M59.197,316.132c-7.006-3.28-10.015-11.594-6.721-18.57l77.118-163.301c3.295-6.976,11.645-9.972,18.651-6.692l57.992,27.15
		c7.006,3.281,10.015,11.595,6.721,18.571L135.84,336.591c-3.295,6.976-11.645,9.972-18.651,6.691L59.197,316.132z"/>
	<path clip-path="url(#SVGID_8_)" fill="#D2C2B2" d="M131.468,331.79L206.456,173c2.354-4.983,0.204-10.922-4.801-13.265
		l-54.367-25.453c-5.005-2.343-10.969-0.203-13.322,4.779L58.979,297.852c-2.353,4.982-0.204,10.921,4.801,13.264l54.367,25.454
		C123.151,338.913,129.115,336.772,131.468,331.79"/>
</g>
</svg>
